<svg aria-labelledby="chart-title-mermaid-1680476827465" aria-roledescription="er" viewBox="0 -62 249.3515625 448" style="max-width: 249.352px; background-color: rgb(0, 43, 54);" xmlns:xlink="http://www.w3.org/1999/xlink" xmlns="http://www.w3.org/2000/svg" width="100%" id="mermaid-1680476827465"><title id="chart-title-mermaid-1680476827465">onelink</title><style>#mermaid-1680476827465{font-family:"trebuchet ms",verdana,arial,sans-serif;font-size:16px;fill:#ccc;}#mermaid-1680476827465 .error-icon{fill:#a44141;}#mermaid-1680476827465 .error-text{fill:#ddd;stroke:#ddd;}#mermaid-1680476827465 .edge-thickness-normal{stroke-width:2px;}#mermaid-1680476827465 .edge-thickness-thick{stroke-width:3.5px;}#mermaid-1680476827465 .edge-pattern-solid{stroke-dasharray:0;}#mermaid-1680476827465 .edge-pattern-dashed{stroke-dasharray:3;}#mermaid-1680476827465 .edge-pattern-dotted{stroke-dasharray:2;}#mermaid-1680476827465 .marker{fill:lightgrey;stroke:lightgrey;}#mermaid-1680476827465 .marker.cross{stroke:lightgrey;}#mermaid-1680476827465 svg{font-family:"trebuchet ms",verdana,arial,sans-serif;font-size:16px;}#mermaid-1680476827465 .entityBox{fill:#1f2020;stroke:#81B1DB;}#mermaid-1680476827465 .attributeBoxOdd{fill:hsl(0, 0%, 32%);stroke:#81B1DB;}#mermaid-1680476827465 .attributeBoxEven{fill:hsl(0, 0%, 22%);stroke:#81B1DB;}#mermaid-1680476827465 .relationshipLabelBox{fill:hsl(20, 1.5873015873%, 12.3529411765%);opacity:0.7;background-color:hsl(20, 1.5873015873%, 12.3529411765%);}#mermaid-1680476827465 .relationshipLabelBox rect{opacity:0.5;}#mermaid-1680476827465 .relationshipLine{stroke:lightgrey;}#mermaid-1680476827465 .entityTitleText{text-anchor:middle;font-size:18px;fill:#ccc;}#mermaid-1680476827465 :root{--mermaid-font-family:"trebuchet ms",verdana,arial,sans-serif;}</style><g/><defs><marker orient="auto" markerHeight="18" markerWidth="18" refY="9" refX="0" id="ONLY_ONE_START"><path d="M9,0 L9,18 M15,0 L15,18" fill="none" stroke="gray"/></marker></defs><defs><marker orient="auto" markerHeight="18" markerWidth="18" refY="9" refX="18" id="ONLY_ONE_END"><path d="M3,0 L3,18 M9,0 L9,18" fill="none" stroke="gray"/></marker></defs><defs><marker orient="auto" markerHeight="18" markerWidth="30" refY="9" refX="0" id="ZERO_OR_ONE_START"><circle r="6" cy="9" cx="21" fill="white" stroke="gray"/><path d="M9,0 L9,18" fill="none" stroke="gray"/></marker></defs><defs><marker orient="auto" markerHeight="18" markerWidth="30" refY="9" refX="30" id="ZERO_OR_ONE_END"><circle r="6" cy="9" cx="9" fill="white" stroke="gray"/><path d="M21,0 L21,18" fill="none" stroke="gray"/></marker></defs><defs><marker orient="auto" markerHeight="36" markerWidth="45" refY="18" refX="18" id="ONE_OR_MORE_START"><path d="M0,18 Q 18,0 36,18 Q 18,36 0,18 M42,9 L42,27" fill="none" stroke="gray"/></marker></defs><defs><marker orient="auto" markerHeight="36" markerWidth="45" refY="18" refX="27" id="ONE_OR_MORE_END"><path d="M3,9 L3,27 M9,18 Q27,0 45,18 Q27,36 9,18" fill="none" stroke="gray"/></marker></defs><defs><marker orient="auto" markerHeight="36" markerWidth="57" refY="18" refX="18" id="ZERO_OR_MORE_START"><circle r="6" cy="18" cx="48" fill="white" stroke="gray"/><path d="M0,18 Q18,0 36,18 Q18,36 0,18" fill="none" stroke="gray"/></marker></defs><defs><marker orient="auto" markerHeight="36" markerWidth="57" refY="18" refX="39" id="ZERO_OR_MORE_END"><circle r="6" cy="18" cx="9" fill="white" stroke="gray"/><path d="M21,18 Q39,0 57,18 Q39,36 21,18" fill="none" stroke="gray"/></marker></defs><path style="stroke: gray; fill: none;" marker-start="url(#ONLY_ONE_START)" marker-end="url(#ZERO_OR_MORE_END)" d="M124.67578125,154L124.67578125,162.33333333333334C124.67578125,170.66666666666666,124.67578125,187.33333333333334,124.67578125,204C124.67578125,220.66666666666666,124.67578125,237.33333333333334,124.67578125,245.66666666666666L124.67578125,254" class="er relationshipLine"/><g transform="translate(20,20 )" id="entity-USER-ff51eed2-aef8-4e44-b9be-c86f060546e3"><rect height="134" width="209.3515625" y="0" x="0" class="er entityBox"/><text style="dominant-baseline: middle; text-anchor: middle; font-size: 12px;" transform="translate(104.67578125,12)" y="0" x="0" id="text-entity-USER-ff51eed2-aef8-4e44-b9be-c86f060546e3" class="er entityLabel">USER</text><rect height="22" width="32.328125" y="24" x="0" class="er attributeBoxOdd"/><text style="dominant-baseline: middle; font-size: 10.2px;" transform="translate(5,35)" y="0" x="0" id="text-entity-USER-ff51eed2-aef8-4e44-b9be-c86f060546e3-attr-1-type" class="er entityLabel">UUID</text><rect height="22" width="68.859375" y="24" x="32.328125" class="er attributeBoxOdd"/><text style="dominant-baseline: middle; font-size: 10.2px;" transform="translate(37.328125,35)" y="0" x="0" id="text-entity-USER-ff51eed2-aef8-4e44-b9be-c86f060546e3-attr-1-name" class="er entityLabel">id</text><rect height="22" width="21.5625" y="24" x="101.1875" class="er attributeBoxOdd"/><text style="dominant-baseline: middle; font-size: 10.2px;" transform="translate(106.1875,35)" y="0" x="0" id="text-entity-USER-ff51eed2-aef8-4e44-b9be-c86f060546e3-attr-1-key" class="er entityLabel">PK</text><rect height="22" width="86.6015625" y="24" x="122.75" class="er attributeBoxOdd"/><text style="dominant-baseline: middle; font-size: 10.2px;" transform="translate(127.75,35)" y="0" x="0" id="text-entity-USER-ff51eed2-aef8-4e44-b9be-c86f060546e3-attr-1-comment" class="er entityLabel">required</text><rect height="22" width="32.328125" y="46" x="0" class="er attributeBoxEven"/><text style="dominant-baseline: middle; font-size: 10.2px;" transform="translate(5,57)" y="0" x="0" id="text-entity-USER-ff51eed2-aef8-4e44-b9be-c86f060546e3-attr-2-type" class="er entityLabel">char</text><rect height="22" width="68.859375" y="46" x="32.328125" class="er attributeBoxEven"/><text style="dominant-baseline: middle; font-size: 10.2px;" transform="translate(37.328125,57)" y="0" x="0" id="text-entity-USER-ff51eed2-aef8-4e44-b9be-c86f060546e3-attr-2-name" class="er entityLabel">username</text><rect height="22" width="21.5625" y="46" x="101.1875" class="er attributeBoxEven"/><text style="dominant-baseline: middle; font-size: 10.2px;" transform="translate(106.1875,57)" y="0" x="0" id="text-entity-USER-ff51eed2-aef8-4e44-b9be-c86f060546e3-attr-2-key" class="er entityLabel"/><rect height="22" width="86.6015625" y="46" x="122.75" class="er attributeBoxEven"/><text style="dominant-baseline: middle; font-size: 10.2px;" transform="translate(127.75,57)" y="0" x="0" id="text-entity-USER-ff51eed2-aef8-4e44-b9be-c86f060546e3-attr-2-comment" class="er entityLabel">required, unique</text><rect height="22" width="32.328125" y="68" x="0" class="er attributeBoxOdd"/><text style="dominant-baseline: middle; font-size: 10.2px;" transform="translate(5,79)" y="0" x="0" id="text-entity-USER-ff51eed2-aef8-4e44-b9be-c86f060546e3-attr-3-type" class="er entityLabel">char</text><rect height="22" width="68.859375" y="68" x="32.328125" class="er attributeBoxOdd"/><text style="dominant-baseline: middle; font-size: 10.2px;" transform="translate(37.328125,79)" y="0" x="0" id="text-entity-USER-ff51eed2-aef8-4e44-b9be-c86f060546e3-attr-3-name" class="er entityLabel">given_name</text><rect height="22" width="21.5625" y="68" x="101.1875" class="er attributeBoxOdd"/><text style="dominant-baseline: middle; font-size: 10.2px;" transform="translate(106.1875,79)" y="0" x="0" id="text-entity-USER-ff51eed2-aef8-4e44-b9be-c86f060546e3-attr-3-key" class="er entityLabel"/><rect height="22" width="86.6015625" y="68" x="122.75" class="er attributeBoxOdd"/><text style="dominant-baseline: middle; font-size: 10.2px;" transform="translate(127.75,79)" y="0" x="0" id="text-entity-USER-ff51eed2-aef8-4e44-b9be-c86f060546e3-attr-3-comment" class="er entityLabel">required</text><rect height="22" width="32.328125" y="90" x="0" class="er attributeBoxEven"/><text style="dominant-baseline: middle; font-size: 10.2px;" transform="translate(5,101)" y="0" x="0" id="text-entity-USER-ff51eed2-aef8-4e44-b9be-c86f060546e3-attr-4-type" class="er entityLabel">char</text><rect height="22" width="68.859375" y="90" x="32.328125" class="er attributeBoxEven"/><text style="dominant-baseline: middle; font-size: 10.2px;" transform="translate(37.328125,101)" y="0" x="0" id="text-entity-USER-ff51eed2-aef8-4e44-b9be-c86f060546e3-attr-4-name" class="er entityLabel">family_name</text><rect height="22" width="21.5625" y="90" x="101.1875" class="er attributeBoxEven"/><text style="dominant-baseline: middle; font-size: 10.2px;" transform="translate(106.1875,101)" y="0" x="0" id="text-entity-USER-ff51eed2-aef8-4e44-b9be-c86f060546e3-attr-4-key" class="er entityLabel"/><rect height="22" width="86.6015625" y="90" x="122.75" class="er attributeBoxEven"/><text style="dominant-baseline: middle; font-size: 10.2px;" transform="translate(127.75,101)" y="0" x="0" id="text-entity-USER-ff51eed2-aef8-4e44-b9be-c86f060546e3-attr-4-comment" class="er entityLabel">required</text><rect height="22" width="32.328125" y="112" x="0" class="er attributeBoxOdd"/><text style="dominant-baseline: middle; font-size: 10.2px;" transform="translate(5,123)" y="0" x="0" id="text-entity-USER-ff51eed2-aef8-4e44-b9be-c86f060546e3-attr-5-type" class="er entityLabel">char</text><rect height="22" width="68.859375" y="112" x="32.328125" class="er attributeBoxOdd"/><text style="dominant-baseline: middle; font-size: 10.2px;" transform="translate(37.328125,123)" y="0" x="0" id="text-entity-USER-ff51eed2-aef8-4e44-b9be-c86f060546e3-attr-5-name" class="er entityLabel">email</text><rect height="22" width="21.5625" y="112" x="101.1875" class="er attributeBoxOdd"/><text style="dominant-baseline: middle; font-size: 10.2px;" transform="translate(106.1875,123)" y="0" x="0" id="text-entity-USER-ff51eed2-aef8-4e44-b9be-c86f060546e3-attr-5-key" class="er entityLabel"/><rect height="22" width="86.6015625" y="112" x="122.75" class="er attributeBoxOdd"/><text style="dominant-baseline: middle; font-size: 10.2px;" transform="translate(127.75,123)" y="0" x="0" id="text-entity-USER-ff51eed2-aef8-4e44-b9be-c86f060546e3-attr-5-comment" class="er entityLabel">required, unique</text></g><g transform="translate(50.05859375,254 )" id="entity-LINK-faf42b04-c7f7-4211-b573-e5caf0ce8428"><rect height="112" width="149.234375" y="0" x="0" class="er entityBox"/><text style="dominant-baseline: middle; text-anchor: middle; font-size: 12px;" transform="translate(74.6171875,12)" y="0" x="0" id="text-entity-LINK-faf42b04-c7f7-4211-b573-e5caf0ce8428" class="er entityLabel">LINK</text><rect height="22" width="32.328125" y="24" x="0" class="er attributeBoxOdd"/><text style="dominant-baseline: middle; font-size: 10.2px;" transform="translate(5,35)" y="0" x="0" id="text-entity-LINK-faf42b04-c7f7-4211-b573-e5caf0ce8428-attr-1-type" class="er entityLabel">UUID</text><rect height="22" width="46.4375" y="24" x="32.328125" class="er attributeBoxOdd"/><text style="dominant-baseline: middle; font-size: 10.2px;" transform="translate(37.328125,35)" y="0" x="0" id="text-entity-LINK-faf42b04-c7f7-4211-b573-e5caf0ce8428-attr-1-name" class="er entityLabel">id</text><rect height="22" width="21.5625" y="24" x="78.765625" class="er attributeBoxOdd"/><text style="dominant-baseline: middle; font-size: 10.2px;" transform="translate(83.765625,35)" y="0" x="0" id="text-entity-LINK-faf42b04-c7f7-4211-b573-e5caf0ce8428-attr-1-key" class="er entityLabel">PK</text><rect height="22" width="48.90625" y="24" x="100.328125" class="er attributeBoxOdd"/><text style="dominant-baseline: middle; font-size: 10.2px;" transform="translate(105.328125,35)" y="0" x="0" id="text-entity-LINK-faf42b04-c7f7-4211-b573-e5caf0ce8428-attr-1-comment" class="er entityLabel">required</text><rect height="22" width="32.328125" y="46" x="0" class="er attributeBoxEven"/><text style="dominant-baseline: middle; font-size: 10.2px;" transform="translate(5,57)" y="0" x="0" id="text-entity-LINK-faf42b04-c7f7-4211-b573-e5caf0ce8428-attr-2-type" class="er entityLabel">UUID</text><rect height="22" width="46.4375" y="46" x="32.328125" class="er attributeBoxEven"/><text style="dominant-baseline: middle; font-size: 10.2px;" transform="translate(37.328125,57)" y="0" x="0" id="text-entity-LINK-faf42b04-c7f7-4211-b573-e5caf0ce8428-attr-2-name" class="er entityLabel">user_id</text><rect height="22" width="21.5625" y="46" x="78.765625" class="er attributeBoxEven"/><text style="dominant-baseline: middle; font-size: 10.2px;" transform="translate(83.765625,57)" y="0" x="0" id="text-entity-LINK-faf42b04-c7f7-4211-b573-e5caf0ce8428-attr-2-key" class="er entityLabel">FK</text><rect height="22" width="48.90625" y="46" x="100.328125" class="er attributeBoxEven"/><text style="dominant-baseline: middle; font-size: 10.2px;" transform="translate(105.328125,57)" y="0" x="0" id="text-entity-LINK-faf42b04-c7f7-4211-b573-e5caf0ce8428-attr-2-comment" class="er entityLabel"/><rect height="22" width="32.328125" y="68" x="0" class="er attributeBoxOdd"/><text style="dominant-baseline: middle; font-size: 10.2px;" transform="translate(5,79)" y="0" x="0" id="text-entity-LINK-faf42b04-c7f7-4211-b573-e5caf0ce8428-attr-3-type" class="er entityLabel">char</text><rect height="22" width="46.4375" y="68" x="32.328125" class="er attributeBoxOdd"/><text style="dominant-baseline: middle; font-size: 10.2px;" transform="translate(37.328125,79)" y="0" x="0" id="text-entity-LINK-faf42b04-c7f7-4211-b573-e5caf0ce8428-attr-3-name" class="er entityLabel">uri</text><rect height="22" width="21.5625" y="68" x="78.765625" class="er attributeBoxOdd"/><text style="dominant-baseline: middle; font-size: 10.2px;" transform="translate(83.765625,79)" y="0" x="0" id="text-entity-LINK-faf42b04-c7f7-4211-b573-e5caf0ce8428-attr-3-key" class="er entityLabel"/><rect height="22" width="48.90625" y="68" x="100.328125" class="er attributeBoxOdd"/><text style="dominant-baseline: middle; font-size: 10.2px;" transform="translate(105.328125,79)" y="0" x="0" id="text-entity-LINK-faf42b04-c7f7-4211-b573-e5caf0ce8428-attr-3-comment" class="er entityLabel">required</text><rect height="22" width="32.328125" y="90" x="0" class="er attributeBoxEven"/><text style="dominant-baseline: middle; font-size: 10.2px;" transform="translate(5,101)" y="0" x="0" id="text-entity-LINK-faf42b04-c7f7-4211-b573-e5caf0ce8428-attr-4-type" class="er entityLabel">bool</text><rect height="22" width="46.4375" y="90" x="32.328125" class="er attributeBoxEven"/><text style="dominant-baseline: middle; font-size: 10.2px;" transform="translate(37.328125,101)" y="0" x="0" id="text-entity-LINK-faf42b04-c7f7-4211-b573-e5caf0ce8428-attr-4-name" class="er entityLabel">enabled</text><rect height="22" width="21.5625" y="90" x="78.765625" class="er attributeBoxEven"/><text style="dominant-baseline: middle; font-size: 10.2px;" transform="translate(83.765625,101)" y="0" x="0" id="text-entity-LINK-faf42b04-c7f7-4211-b573-e5caf0ce8428-attr-4-key" class="er entityLabel"/><rect height="22" width="48.90625" y="90" x="100.328125" class="er attributeBoxEven"/><text style="dominant-baseline: middle; font-size: 10.2px;" transform="translate(105.328125,101)" y="0" x="0" id="text-entity-LINK-faf42b04-c7f7-4211-b573-e5caf0ce8428-attr-4-comment" class="er entityLabel">required</text></g><rect height="14" width="17.71875" y="197" x="115.81640625" class="er relationshipLabelBox"/><text style="text-anchor: middle; dominant-baseline: middle; font-size: 12px;" y="204" x="124.67578125" id="rel1" class="er relationshipLabel">has</text><text class="entityTitleText" y="-25" x="124.67578125">onelink</text></svg>